<svg width="24" height="24" viewBox="0 0 24 24" fill="none" xmlns="http://www.w3.org/2000/svg">
<path d="M21.547 3.88621L12.3595 0.071666C12.1294 -0.0238652 11.8707 -0.0239121 11.6406 0.071666L2.45306 3.88621C2.10314 4.03153 1.87505 4.37315 1.87505 4.75204V9.38915C1.87505 15.7741 5.73422 21.5176 11.6458 23.9305C11.8728 24.0232 12.1272 24.0232 12.3543 23.9305C18.2658 21.5176 22.125 15.7742 22.125 9.38915V4.75204C22.125 4.37315 21.897 4.03153 21.547 3.88621ZM20.25 9.38915C20.25 14.817 17.0625 19.8138 12 22.0442C7.07283 19.8734 3.75005 14.9641 3.75005 9.38915V5.37792L12 1.95257L20.25 5.37792V9.38915ZM10.9638 12.5492L14.9934 8.51967C15.3595 8.15357 15.9531 8.15353 16.3192 8.51967C16.6853 8.88581 16.6853 9.47939 16.3192 9.84548L11.6267 14.5379C11.2605 14.9041 10.667 14.9039 10.3009 14.5379L7.68089 11.9179C7.31475 11.5517 7.31475 10.9582 7.68089 10.5921C8.04703 10.226 8.64061 10.2259 9.0067 10.5921L10.9638 12.5492Z" fill="#3F0E0A"/>
</svg>
