<svg width="20" height="20" viewBox="0 0 20 20" fill="none" xmlns="http://www.w3.org/2000/svg">
<g clip-path="url(#clip0_1_80)">
<path d="M17.9559 3.23851L10.2996 0.0597217C10.1078 -0.0198877 9.89222 -0.0199268 9.70046 0.0597217L2.04421 3.23851C1.75261 3.3596 1.56253 3.64429 1.56253 3.96003V7.82429C1.56253 13.1451 4.77851 17.9313 9.7048 19.9421C9.89402 20.0193 10.106 20.0193 10.2953 19.9421C15.2215 17.9314 18.4375 13.1452 18.4375 7.82429V3.96003C18.4375 3.64429 18.2475 3.3596 17.9559 3.23851ZM16.875 7.82429C16.875 12.3475 14.2188 16.5115 10 18.3701C5.89401 16.5611 3.12503 12.4701 3.12503 7.82429V4.4816L10 1.62714L16.875 4.4816V7.82429ZM9.13651 10.4577L12.4945 7.09972C12.7996 6.79464 13.2942 6.7946 13.5993 7.09972C13.9044 7.40484 13.9044 7.89949 13.5993 8.20457L9.68894 12.1149C9.38378 12.4201 8.88913 12.42 8.58409 12.1149L6.40073 9.93156C6.09562 9.62644 6.09562 9.13179 6.40073 8.82671C6.70585 8.52164 7.2005 8.5216 7.50558 8.82671L9.13651 10.4577Z" fill="#3F0E0A"/>
</g>
<defs>
<clipPath id="clip0_1_80">
<rect width="20" height="20" fill="white"/>
</clipPath>
</defs>
</svg>
