<svg width="24" height="24" viewBox="0 0 24 24" fill="none" xmlns="http://www.w3.org/2000/svg">
<g clip-path="url(#clip0_1_60)">
<path d="M3.89928 3.97137C-0.523669 8.44239 -0.499631 15.6778 3.97139 20.1007C8.44241 24.5236 15.6778 24.4996 20.1007 20.0286C24.5237 15.5576 24.4996 8.3222 20.0286 3.89925C15.5576 -0.523691 8.32222 -0.499654 3.89928 3.97137ZM17.5527 9.81254L11.351 16.0864C10.8221 16.6152 9.95679 16.6152 9.42796 16.0864L9.18758 15.846L8.46645 15.1249L6.44728 13.1297C5.91845 12.6009 5.91845 11.7356 6.44728 11.2067C6.97611 10.6779 7.84147 10.6779 8.3703 11.2067L10.3895 13.2019L15.6297 7.91356C16.1585 7.38473 17.0239 7.38473 17.5527 7.91356C18.0815 8.41835 18.0815 9.28371 17.5527 9.81254Z" fill="#3F0E0A"/>
</g>
<defs>
<clipPath id="clip0_1_60">
<rect width="24" height="24" fill="white"/>
</clipPath>
</defs>
</svg>
