<svg width="132" height="24" viewBox="0 0 132 24" fill="none" xmlns="http://www.w3.org/2000/svg">
<rect width="24" height="24" rx="1.5" fill="#1BBA85"/>
<path d="M19.8836 10.1231H13.8716L12.0146 4.40137L10.1516 10.1235L4.13965 10.1175L9.00865 13.6575L7.14565 19.3736L12.0146 15.8396L16.8776 19.3736L15.0206 13.6575L19.8836 10.1231Z" fill="white"/>
<path d="M15.4384 14.9516L15.0206 13.6575L12.0146 15.8396L15.4384 14.9516Z" fill="#1BBA85"/>
<rect x="27" width="24" height="24" rx="1.5" fill="#1BBA85"/>
<path d="M46.8836 10.1231H40.8716L39.0146 4.40137L37.1516 10.1235L31.1396 10.1175L36.0086 13.6575L34.1456 19.3736L39.0146 15.8396L43.8776 19.3736L42.0206 13.6575L46.8836 10.1231Z" fill="white"/>
<path d="M42.4384 14.9516L42.0206 13.6575L39.0146 15.8396L42.4384 14.9516Z" fill="#1BBA85"/>
<rect x="54" width="24" height="24" rx="1.5" fill="#1BBA85"/>
<path d="M73.8836 10.1231H67.8716L66.0146 4.40137L64.1516 10.1235L58.1396 10.1175L63.0086 13.6575L61.1456 19.3736L66.0146 15.8396L70.8776 19.3736L69.0206 13.6575L73.8836 10.1231Z" fill="white"/>
<path d="M69.4384 14.9516L69.0206 13.6575L66.0146 15.8396L69.4384 14.9516Z" fill="#1BBA85"/>
<rect x="81" width="24" height="24" rx="1.5" fill="#1BBA85"/>
<path d="M100.884 10.1231H94.8716L93.0146 4.40137L91.1516 10.1235L85.1396 10.1175L90.0086 13.6575L88.1456 19.3736L93.0146 15.8396L97.8776 19.3736L96.0206 13.6575L100.884 10.1231Z" fill="white"/>
<path d="M96.4384 14.9516L96.0206 13.6575L93.0146 15.8396L96.4384 14.9516Z" fill="#1BBA85"/>
<rect x="108" width="24" height="24" rx="1.5" fill="#1BBA85"/>
<path d="M127.884 10.1231H121.872L120.015 4.40137L118.152 10.1235L112.14 10.1175L117.009 13.6575L115.146 19.3736L120.015 15.8396L124.878 19.3736L123.021 13.6575L127.884 10.1231Z" fill="white"/>
<path d="M123.438 14.9516L123.021 13.6575L120.015 15.8396L123.438 14.9516Z" fill="#1BBA85"/>
</svg>
