<svg width="57" height="57" viewBox="0 0 57 57" fill="none" xmlns="http://www.w3.org/2000/svg">
<path d="M22.48 38.6781L28.2078 44.2023C28.4759 44.4607 28.8218 44.5899 29.168 44.5899C29.5142 44.5899 29.8603 44.4607 30.1282 44.2023L35.856 38.6781C35.8679 38.6667 35.8798 38.6548 35.8913 38.6429C37.9785 36.479 37.9785 32.9582 35.8898 30.793C34.1563 29.001 31.2187 28.9378 29.1662 30.5879C27.1149 28.9363 24.1768 28.9992 22.4457 30.7933C20.3527 32.9578 20.3527 36.4797 22.4457 38.6441C22.4571 38.6556 22.4684 38.6669 22.48 38.6781ZM24.4357 32.7149C25.3073 31.8114 26.7489 32.0947 27.5846 32.8751L27.6392 32.9263C28.0506 33.3112 28.4759 33.7093 29.1676 33.7093C29.8618 33.7093 30.2862 33.3098 30.6966 32.9235L30.7477 32.8752C31.5837 32.0947 33.027 31.8123 33.9005 32.7149C34.943 33.7957 34.9481 35.6182 33.9159 36.7063L29.1682 41.2853L24.4196 36.7056C23.3668 35.6001 23.3719 33.8151 24.4357 32.7149Z" fill="#3F0E0A"/>
<path d="M11.6762 26.0249V46.253C11.6762 48.8705 13.8066 51 16.4254 51H41.9104C44.5271 51 46.6559 48.8705 46.6559 46.253V26.0256C48.7463 25.643 50.3358 23.8102 50.3358 21.6121V19.6479C50.3358 17.173 48.3215 15.1596 45.8453 15.1596H42.9803C43.3085 13.9362 43.2244 12.6153 42.7032 11.3194C41.7699 8.99836 39.6246 7.27494 37.3651 7.03109C35.3196 6.81062 33.4565 7.77039 32.1194 9.73572L29.1672 14.082L26.2119 9.73545C24.8771 7.77122 23.0157 6.81117 20.9699 7.03081C18.7095 7.27411 16.5633 8.99753 15.6291 11.3196C15.1078 12.6155 15.0236 13.9362 15.3516 15.1595H12.4903C10.0143 15.1595 8 17.1728 8 19.6477V21.612C8.00014 23.8088 9.58787 25.6408 11.6762 26.0249ZM34.4076 11.2908C35.1631 10.1803 36.0593 9.67196 37.0684 9.78137C38.321 9.9165 39.5827 10.9734 40.1369 12.3514C40.3792 12.9539 40.6444 14.0542 40.0123 15.1596H31.7797L34.4076 11.2908ZM18.1958 12.3521C18.7506 10.9732 20.0132 9.91609 21.2663 9.78123C22.2755 9.67224 23.1701 10.1804 23.9246 11.2905L26.5552 15.1596H18.3202C17.6882 14.0545 17.9535 12.9545 18.1958 12.3521ZM10.7665 19.6479C10.7665 18.6983 11.5398 17.926 12.4904 17.926H45.8455C46.7961 17.926 47.5696 18.6985 47.5696 19.6479V21.6121C47.5696 22.5616 46.7961 23.334 45.8455 23.334H29.168C28.4042 23.334 27.7849 23.9532 27.7849 24.7172C27.7849 25.4811 28.4042 26.1003 29.168 26.1003H43.8897V46.2531C43.8897 47.3452 43.0018 48.2338 41.9105 48.2338H16.4255C15.3321 48.2338 14.4426 47.3452 14.4426 46.2531V26.1003H16.5355C17.2994 26.1003 17.9186 25.4811 17.9186 24.7172C17.9186 23.9532 17.2994 23.334 16.5355 23.334H12.4906C11.5399 23.334 10.7666 22.5615 10.7666 21.6121V19.6479H10.7665Z" fill="#3F0E0A"/>
<path d="M22.7497 26.1003C23.5136 26.1003 24.1329 25.4811 24.1329 24.7171C24.1329 23.9532 23.5136 23.334 22.7497 23.334H22.7458C21.9819 23.334 21.3646 23.9532 21.3646 24.7171C21.3645 25.4811 21.9858 26.1003 22.7497 26.1003Z" fill="#3F0E0A"/>
</svg>
