<svg width="117" height="42" viewBox="0 0 117 42" fill="none" xmlns="http://www.w3.org/2000/svg">
<path d="M14.9846 41.7701H12.401C11.8367 41.8675 11.3544 41.3766 10.9543 40.3016C10.628 39.5642 10.3817 39.0443 10.2196 38.7439C10.0554 38.4415 9.91588 38.2427 9.79686 38.1453C9.61832 38.0252 9.35975 37.963 9.01705 37.963H3.04946L1.84691 41.244C1.69916 41.4263 1.58629 41.5402 1.51242 41.5878C1.34825 41.708 1.16356 41.7701 0.956291 41.7701H0L6.01068 27.3621C6.05583 27.2419 6.20358 27.157 6.45599 27.1073C6.54423 27.0824 6.6571 27.0721 6.79049 27.0721H7.74883L14.9846 41.7701ZM9.66347 37.1677C9.66347 37.0952 9.63269 37.0165 9.57523 36.9315L6.30208 29.9181C6.15433 29.6529 6.00453 29.5204 5.85677 29.5204C5.72338 29.5204 5.61257 29.6529 5.52228 29.9181L3.25057 37.4204H9.19558C9.50751 37.4079 9.66347 37.323 9.66347 37.1656V37.1677Z" fill="white"/>
<path d="M20.2381 27.3455V40.9748C20.1498 41.4822 19.8297 41.7536 19.2797 41.7909H17.6544V28.0539C17.6544 27.6189 17.9582 27.3828 18.5676 27.3476H20.2381V27.3455Z" fill="white"/>
<path d="M34.5989 31.9852V32.1302C34.5989 33.4724 33.8191 34.5537 32.2615 35.3739C31.6089 35.7115 30.8209 35.9891 29.9016 36.2086L34.5763 41.7722L32.9059 41.7535C32.4749 41.826 32.0009 41.5671 31.4817 40.9747L28.186 36.7513C28.0382 36.5463 27.8658 36.4075 27.6729 36.335C27.5847 36.2998 27.5026 36.2811 27.4287 36.2811H25.4915V41.0472C25.4915 41.4946 25.2535 41.737 24.7794 41.7722H22.8197V28.1264C22.8648 27.7887 23.0413 27.5526 23.3532 27.4201C23.4866 27.3724 23.6426 27.3413 23.8211 27.3289C25.8691 27.3289 27.0573 27.3413 27.3836 27.3662C28.9268 27.4739 29.7353 27.536 29.8113 27.5485C31.3257 27.7784 32.4092 28.1823 33.0618 28.7623C34.0858 29.6799 34.5989 30.7549 34.5989 31.9894V31.9852ZM31.0815 34.3755C31.7936 33.5656 32.1507 32.7558 32.1507 31.9479C32.1507 31.078 31.8162 30.2598 31.1492 29.4914C30.4823 28.725 29.643 28.2196 28.6333 27.9772C28.0095 27.8322 27.2461 27.7598 26.3411 27.7598C25.7768 27.795 25.4956 28.0021 25.4956 28.3749V35.7882C26.3863 35.8358 27.3959 35.813 28.5246 35.7157C29.4603 35.6908 30.314 35.2434 31.0856 34.3735L31.0815 34.3755Z" fill="white"/>
<path d="M37.1599 27.3082H39.2203C39.5178 27.3082 39.7641 27.4201 39.959 27.6459C40.0616 27.766 41.6089 30.3676 44.5968 35.4464L47.8926 28.0332C48.0259 27.5858 48.2701 27.3434 48.6272 27.3082H50.074L45.3089 35.3553C45.0873 35.6453 44.9683 36.1527 44.9519 36.8777C44.9662 37.7228 44.9662 39.094 44.9519 40.9913C44.9519 41.1363 44.9211 41.2502 44.8636 41.3352C44.6851 41.6251 44.367 41.7701 43.9053 41.7701H42.3026V36.9502C42.3621 36.5877 42.2287 36.1341 41.9024 35.5914C41.7546 35.3491 40.1725 32.5901 37.1599 27.3082Z" fill="white"/>
<path d="M70.3326 31.5855C70.3326 32.3829 70.0412 33.1618 69.4604 33.924C69.0274 34.4667 68.5575 34.8913 68.0506 35.1916C67.4534 35.5541 66.8193 35.813 66.1483 35.9705C65.0155 36.2232 63.3369 36.3516 61.1144 36.3516V41.3165C60.9974 41.4988 60.7779 41.6313 60.4577 41.7142C60.3264 41.7391 60.1725 41.7577 59.9981 41.7681H58.5308V27.94C58.5308 27.5526 58.8345 27.3414 59.444 27.3062C61.6398 27.3062 63.1317 27.3372 63.9197 27.3973C67.1559 27.6024 69.167 28.4972 69.9529 30.0796C70.2053 30.5747 70.3305 31.0759 70.3305 31.5834L70.3326 31.5855ZM67.7284 31.6393C67.7284 30.7217 67.4021 29.9533 66.7496 29.3381C66.0518 28.6608 65.1838 28.2155 64.1454 27.9959C63.6406 27.8882 62.9285 27.8323 62.0071 27.8323C61.3545 27.8799 61.057 28.1657 61.1165 28.6836V35.8234C61.5166 35.811 61.9845 35.7944 62.5201 35.7695C63.7966 35.7095 64.8206 35.4671 65.5922 35.0446C67.0163 34.2471 67.7305 33.112 67.7305 31.6373L67.7284 31.6393Z" fill="white"/>
<path d="M85.4054 29.4645C86.5485 30.817 87.119 32.3767 87.119 34.1394C87.119 34.477 87.0964 34.8105 87.0512 35.1357C86.7988 37.0683 85.9575 38.688 84.5251 39.9929C83.0927 41.2979 81.4551 41.9503 79.6164 41.9503C77.5376 41.9503 75.861 41.1777 74.5846 39.6305C73.4415 38.2779 72.871 36.7182 72.871 34.9555C72.871 34.6179 72.8936 34.2844 72.9388 33.9592C73.1912 32.0267 74.0325 30.4069 75.4649 29.102C76.8973 27.7971 78.5329 27.1446 80.3736 27.1446C82.436 27.1446 84.1147 27.9172 85.4054 29.4645ZM83.7802 29.8912C82.949 28.5199 81.8881 27.8095 80.5973 27.7618C79.3065 27.7018 78.1635 28.3211 77.1682 29.6198C76.1729 30.9185 75.6168 32.5176 75.4978 34.4128C75.3787 36.2977 75.7358 37.9258 76.5669 39.297C77.398 40.6682 78.459 41.3849 79.7498 41.4449C81.0406 41.4926 82.1836 40.867 83.1789 39.5683C84.1742 38.2696 84.7303 36.6768 84.8493 34.7919C84.9683 32.8946 84.6113 31.2603 83.7802 29.8891V29.8912Z" fill="white"/>
<path d="M90.0371 27.3621H92.1959C92.4935 27.3869 92.6043 27.6583 92.5304 28.1782C92.4853 28.4329 92.4422 29.4354 92.397 31.1857C92.3416 32.6605 92.3047 34.1207 92.2862 35.5707C92.2718 36.7658 92.3457 37.6917 92.5099 38.3442C92.8218 39.6367 93.5442 40.5066 94.6749 40.954C95.2556 41.1839 95.8508 41.2978 96.4623 41.2978C97.4884 41.2978 98.3092 40.9892 98.9187 40.374C99.4543 39.8417 99.8114 39.1478 99.9899 38.2903C100.095 37.8077 100.146 37.2754 100.146 36.6954C100.146 36.1154 100.064 35.1978 99.9017 33.9405C99.8873 33.7707 99.7539 31.8982 99.5015 28.3231C99.4707 28.2258 99.4563 28.1367 99.4563 28.0518C99.4563 27.6168 99.7601 27.3869 100.37 27.3641H101.95C102.112 28.4516 102.262 29.6778 102.395 31.0428C102.574 32.8676 102.662 34.2512 102.662 35.1937C102.662 36.7886 102.461 38.0086 102.06 38.8537C101.749 39.531 101.377 40.0675 100.948 40.4673C100.384 40.9747 99.8791 41.3248 99.4338 41.5174C98.929 41.7225 97.9562 41.8799 96.5177 41.9897C95.8056 42.0373 94.9745 41.9296 94.0244 41.6624C91.886 41.07 90.5522 39.8935 90.0166 38.1287C89.8688 37.6461 89.7642 36.5525 89.7046 34.8478C89.6903 34.3403 89.6964 33.7355 89.7272 33.0354C89.8155 31.9003 89.8832 30.9268 89.9283 30.1169C89.9571 29.1993 89.996 28.2797 90.0391 27.3621H90.0371Z" fill="white"/>
<path d="M117 31.9852V32.1302C117 33.4724 116.22 34.5537 114.663 35.3739C114.01 35.7115 113.222 35.9891 112.303 36.2086L116.977 41.7722L115.307 41.7535C114.876 41.826 114.402 41.5671 113.883 40.9747L110.587 36.7513C110.439 36.5463 110.267 36.4075 110.074 36.335C109.986 36.2998 109.904 36.2811 109.83 36.2811H107.893V41.0472C107.893 41.4946 107.655 41.737 107.181 41.7722H105.221V28.1264C105.266 27.7887 105.442 27.5526 105.754 27.4201C105.888 27.3724 106.044 27.3413 106.222 27.3289C108.27 27.3289 109.458 27.3413 109.785 27.3662C111.328 27.4739 112.136 27.536 112.212 27.5485C113.727 27.7784 114.81 28.1823 115.463 28.7623C116.487 29.6799 117 30.7549 117 31.9894V31.9852ZM113.483 34.3755C114.195 33.5656 114.552 32.7558 114.552 31.9479C114.552 31.078 114.217 30.2598 113.55 29.4914C112.883 28.725 112.044 28.2196 111.034 27.9772C110.411 27.8322 109.647 27.7598 108.742 27.7598C108.178 27.795 107.897 28.0021 107.897 28.3749V35.7882C108.787 35.8358 109.797 35.813 110.926 35.7157C111.861 35.6908 112.713 35.2434 113.487 34.3735L113.483 34.3755Z" fill="white"/>
<path d="M60.2936 6.47493C62.514 12.664 63.3676 21.3076 55.5614 23.5446C55.0688 25.7298 54.4101 27.9275 54.2603 30.1811C54.1597 31.6932 54.4429 33.5076 54.2685 34.9493C54.2295 35.2745 54.2172 35.6059 53.7883 35.6079C53.4128 31.5627 54.0428 27.5195 55.0114 23.6109C50.3182 23.8947 46.9465 21.0404 46.1975 16.4172C45.6126 12.8111 46.7372 6.88091 49.0069 3.9355C49.5917 3.17533 51.0159 1.58663 52.0543 2.27017C53.2363 3.04898 51.1123 4.36633 50.667 4.84895C48.6724 7.01554 47.712 11.0629 50.4946 13.0306C51.4099 13.6769 53.3902 14.2258 53.9689 12.9457C54.6748 11.386 53.0906 11.5931 52.7274 11.1602C51.9168 10.1888 53.4148 9.12 54.5414 10.0894C56.4458 11.7278 54.8595 17.4508 59.3332 14.3604C59.5466 14.2134 60.5029 12.9933 60.6691 13.8094C60.6999 13.9565 59.2265 15.6156 59.0069 15.9367C57.6402 17.9231 56.7393 20.1953 55.9533 22.4675C56.335 22.7534 58.0219 21.6949 58.3892 21.4049C62.5324 18.1426 61.3914 11.4544 59.7333 7.13361L50.4823 6.85398C50.468 6.73177 50.7327 6.47493 50.7655 6.47493H60.2915H60.2936ZM51.6151 2.66786C48.9781 3.51295 47.7038 7.36559 47.1764 9.89674C46.2529 14.3273 46.2201 19.9136 50.8538 22.192C51.7259 22.6208 54.7918 23.4079 55.3746 22.5504C55.6947 22.0802 56.1708 20.1932 56.4848 19.4828C57.0717 18.1633 57.7551 16.8998 58.4056 15.6156C54.7631 16.7839 55.8014 12.5045 54.4429 10.7605C53.8663 10.021 53.2096 9.70825 52.9367 10.8516C56.4848 11.7216 54.092 15.2138 50.942 13.913C47.32 12.4196 47.7202 7.39459 49.9139 4.85102C50.5603 4.09913 51.7444 3.67452 51.6151 2.66579V2.66786Z" fill="#D30000"/>
<path d="M54.1987 0.0207338C55.0442 -0.188469 55.3643 1.24281 54.3424 1.34016C53.3861 1.4313 53.5667 0.178154 54.1987 0.0207338Z" fill="#D30000"/>
<path d="M53.6775 2.08172C54.1002 1.97608 54.2603 2.69276 53.7493 2.7404C53.2712 2.78596 53.3615 2.16043 53.6775 2.08172Z" fill="#D30000"/>
</svg>
